# xmcd
#
# Track frame offsets:
# 150
# 15232
# 32766
# 48596
# 64160
# 81410
# 96004
# 114007
# 129083
# 142833
# 158613
# 173186
#
# Disc length: 2485 seconds
#
#
# Revision: 1
# Processed by: cddbd v1.5.2PL0 Copyright (c) Steve Scherf et al.
# Submitted via: FreeRIP 2.96 
#
DISCID=8709b30c
DTITLE=Gino and Geno (www.estilocountry.net) - A Galera do Chapéu
DYEAR=2005
DGENRE=Country
TTITLE0=01 - Agito ae
TTITLE1=02 - Acidente de Amor
TTITLE2=03 - Bebo pra Carai
TTITLE3=04 - Cara Boa
TTITLE4=05 - O Gaviao
TTITLE5=06 - Galera do Chapeu
TTITLE6=07 - A Mulher e a Bebida
TTITLE7=08 - Que Amor e Esse
TTITLE8=09 - Que Bixo que e
TTITLE9=10 - Saudade Cigana
TTITLE10=11 - To Ficando com ELa
TTITLE11=12 - Uma Noticia para te Dar
EXTD=YEAR: 2005
EXTT0=
EXTT1=
EXTT2=
EXTT3=
EXTT4=
EXTT5=
EXTT6=
EXTT7=
EXTT8=
EXTT9=
EXTT10=
EXTT11=
PLAYORDER=
